{
	"asset":{
		"generator":"Khronos glTF Blender I/O v4.3.47",
		"version":"2.0"
	},
	"extensionsUsed":[
		"KHR_texture_transform"
	],
	"extensionsRequired":[
		"KHR_texture_transform"
	],
	"scene":0,
	"scenes":[
		{
			"name":"Scene",
			"nodes":[
				0,
				1,
				2,
				3,
				4,
				5,
				6
			]
		},
		{
			"name":"Scene.001",
			"nodes":[
				7
			]
		}
	],
	"nodes":[
		{
			"mesh":0,
			"name":"Cube",
			"scale":[
				0.1805325299501419,
				0.1805325299501419,
				0.1805325299501419
			],
			"translation":[
				0,
				0,
				0.4513312876224518
			]
		},
		{
			"mesh":1,
			"name":"Cube.004",
			"scale":[
				0.1805325299501419,
				0.1805325299501419,
				0.1805325299501419
			],
			"translation":[
				0,
				0,
				-0.4513312876224518
			]
		},
		{
			"mesh":2,
			"name":"Text",
			"rotation":[
				0.7071068286895752,
				0,
				0,
				0.7071067690849304
			],
			"scale":[
				0.05459003895521164,
				0.05459003895521164,
				0.05459003895521164
			],
			"translation":[
				-0.0014750323025509715,
				1.2254928350448608,
				0.6185048222541809
			]
		},
		{
			"mesh":3,
			"name":"Cube.005",
			"scale":[
				0.1805325299501419,
				0.1805325299501419,
				0.1805325299501419
			],
			"translation":[
				0,
				0,
				-0.9026625752449036
			]
		},
		{
			"mesh":4,
			"name":"Cube.006",
			"scale":[
				0.1805325299501419,
				0.1805325299501419,
				0.1805325299501419
			]
		},
		{
			"mesh":5,
			"name":"Plane.001",
			"rotation":[
				0.7071068286895752,
				0,
				0,
				0.7071068286895752
			],
			"scale":[
				0.3143606185913086,
				0.18141421675682068,
				0.1317378133535385
			],
			"translation":[
				0,
				1.2313677072525024,
				0.6170971989631653
			]
		},
		{
			"mesh":6,
			"name":"Plane.012",
			"rotation":[
				0.7071068286895752,
				0,
				0,
				0.7071068286895752
			],
			"scale":[
				0.2976403534412384,
				0.17176510393619537,
				0.1008097380399704
			],
			"translation":[
				0,
				1.3967647552490234,
				0.6109130382537842
			]
		},
		{
			"mesh":7,
			"name":"Plane.010"
		}
	],
	"materials":[
		{
			"doubleSided":true,
			"name":"Material.001",
			"pbrMetallicRoughness":{
				"baseColorTexture":{
					"extensions":{
						"KHR_texture_transform":{
							"offset":[
								0,
								0.5
							],
							"scale":[
								0.5999999046325684,
								0.5
							]
						}
					},
					"index":0
				},
				"metallicFactor":0,
				"roughnessFactor":0.5
			}
		},
		{
			"doubleSided":true,
			"name":"Material.009",
			"pbrMetallicRoughness":{
				"baseColorTexture":{
					"extensions":{
						"KHR_texture_transform":{
							"offset":[
								0,
								0.5
							],
							"scale":[
								0.5999999046325684,
								0.5
							]
						}
					},
					"index":1
				},
				"metallicFactor":0,
				"roughnessFactor":0.5
			}
		},
		{
			"doubleSided":true,
			"name":"Material.005",
			"pbrMetallicRoughness":{
				"baseColorFactor":[
					0,
					0.3564009964466095,
					0.08021999895572662,
					1
				],
				"metallicFactor":0,
				"roughnessFactor":0.5
			}
		},
		{
			"doubleSided":true,
			"name":"Material.010",
			"pbrMetallicRoughness":{
				"baseColorTexture":{
					"extensions":{
						"KHR_texture_transform":{
							"offset":[
								0,
								0.5
							],
							"scale":[
								0.7999998927116394,
								0.5
							]
						}
					},
					"index":2
				},
				"metallicFactor":0,
				"roughnessFactor":0.5
			}
		},
		{
			"doubleSided":true,
			"name":"Material.011",
			"pbrMetallicRoughness":{
				"baseColorTexture":{
					"extensions":{
						"KHR_texture_transform":{
							"offset":[
								0,
								0.7999999821186066
							],
							"scale":[
								0.4000000059604645,
								0.20000001788139343
							]
						}
					},
					"index":3
				},
				"metallicFactor":0,
				"roughnessFactor":0.5
			}
		},
		{
			"alphaMode":"BLEND",
			"doubleSided":true,
			"name":"Material.012",
			"pbrMetallicRoughness":{
				"baseColorTexture":{
					"index":4
				},
				"metallicFactor":0,
				"roughnessFactor":0.5
			}
		},
		{
			"alphaMode":"BLEND",
			"doubleSided":true,
			"name":"Material.013",
			"pbrMetallicRoughness":{
				"baseColorTexture":{
					"index":5
				},
				"metallicFactor":0,
				"roughnessFactor":0.5
			}
		}
	],
	"meshes":[
		{
			"name":"Cube",
			"primitives":[
				{
					"attributes":{
						"POSITION":0,
						"NORMAL":1,
						"TEXCOORD_0":2
					},
					"indices":3,
					"material":0
				}
			]
		},
		{
			"name":"Cube.001",
			"primitives":[
				{
					"attributes":{
						"POSITION":4,
						"NORMAL":5,
						"TEXCOORD_0":6
					},
					"indices":3,
					"material":1
				}
			]
		},
		{
			"name":"Text",
			"primitives":[
				{
					"attributes":{
						"POSITION":7,
						"NORMAL":8,
						"TEXCOORD_0":9
					},
					"indices":10,
					"material":2
				}
			]
		},
		{
			"name":"Cube.003",
			"primitives":[
				{
					"attributes":{
						"POSITION":11,
						"NORMAL":12,
						"TEXCOORD_0":13
					},
					"indices":3,
					"material":3
				}
			]
		},
		{
			"name":"Cube.007",
			"primitives":[
				{
					"attributes":{
						"POSITION":14,
						"NORMAL":15,
						"TEXCOORD_0":16
					},
					"indices":3,
					"material":4
				}
			]
		},
		{
			"name":"Plane.003",
			"primitives":[
				{
					"attributes":{
						"POSITION":17,
						"NORMAL":18,
						"TEXCOORD_0":19
					},
					"indices":20,
					"material":5
				}
			]
		},
		{
			"name":"Plane.012",
			"primitives":[
				{
					"attributes":{
						"POSITION":21,
						"NORMAL":22,
						"TEXCOORD_0":23
					},
					"indices":20,
					"material":6
				}
			]
		},
		{
			"name":"Plane.010",
			"primitives":[
				{
					"attributes":{
						"POSITION":24,
						"NORMAL":25,
						"TEXCOORD_0":26
					},
					"indices":20
				}
			]
		}
	],
	"textures":[
		{
			"sampler":0,
			"source":0
		},
		{
			"sampler":0,
			"source":1
		},
		{
			"sampler":0,
			"source":2
		},
		{
			"sampler":0,
			"source":3
		},
		{
			"sampler":0,
			"source":4
		},
		{
			"sampler":0,
			"source":5
		}
	],
	"images":[
		{
			"mimeType":"image/png",
			"name":"Textures-01v3.mp4",
			"uri":"../../Tunnel/Textures-01v3.mp4"
		},
		{
			"mimeType":"image/png",
			"name":"texture-02v2.mp4",
			"uri":"../../Tunnel/texture-02v2.mp4"
		},
		{
			"mimeType":"image/png",
			"name":"Final-green-to-animate-v3.mp4",
			"uri":"../../Tunnel/Final-green-to-animate-v3.mp4"
		},
		{
			"mimeType":"image/png",
			"name":"flower animation-tunnel-final.mp4.001",
			"uri":"../../Tunnel/flower%20animation-tunnel-final.mp4"
		},
		{
			"mimeType":"image/png",
			"name":"plank.psd",
			"uri":"../../plank.psd"
		},
		{
			"mimeType":"image/png",
			"name":"rope.psd",
			"uri":"../../rope.psd"
		}
	],
	"accessors":[
		{
			"bufferView":0,
			"componentType":5126,
			"count":337,
			"max":[
				2.7684614658355713,
				8.608768463134766,
				0.9886404871940613
			],
			"min":[
				-2.7684614658355713,
				5.453824996948242e-06,
				-0.9886404871940613
			],
			"type":"VEC3"
		},
		{
			"bufferView":1,
			"componentType":5126,
			"count":337,
			"type":"VEC3"
		},
		{
			"bufferView":2,
			"componentType":5126,
			"count":337,
			"type":"VEC2"
		},
		{
			"bufferView":3,
			"componentType":5123,
			"count":978,
			"type":"SCALAR"
		},
		{
			"bufferView":4,
			"componentType":5126,
			"count":337,
			"max":[
				2.7684614658355713,
				8.608768463134766,
				0.9886404871940613
			],
			"min":[
				-2.7684614658355713,
				5.453824996948242e-06,
				-0.9886404871940613
			],
			"type":"VEC3"
		},
		{
			"bufferView":5,
			"componentType":5126,
			"count":337,
			"type":"VEC3"
		},
		{
			"bufferView":6,
			"componentType":5126,
			"count":337,
			"type":"VEC2"
		},
		{
			"bufferView":7,
			"componentType":5126,
			"count":2150,
			"max":[
				4.410852909088135,
				0.07999999076128006,
				0.22308355569839478
			],
			"min":[
				-4.354005336761475,
				-0.07999999076128006,
				-0.3798449635505676
			],
			"type":"VEC3"
		},
		{
			"bufferView":8,
			"componentType":5126,
			"count":2150,
			"type":"VEC3"
		},
		{
			"bufferView":9,
			"componentType":5126,
			"count":2150,
			"type":"VEC2"
		},
		{
			"bufferView":10,
			"componentType":5123,
			"count":6084,
			"type":"SCALAR"
		},
		{
			"bufferView":11,
			"componentType":5126,
			"count":337,
			"max":[
				2.7684614658355713,
				8.608768463134766,
				0.9886404871940613
			],
			"min":[
				-2.7684614658355713,
				5.453824996948242e-06,
				-0.9886404871940613
			],
			"type":"VEC3"
		},
		{
			"bufferView":12,
			"componentType":5126,
			"count":337,
			"type":"VEC3"
		},
		{
			"bufferView":13,
			"componentType":5126,
			"count":337,
			"type":"VEC2"
		},
		{
			"bufferView":14,
			"componentType":5126,
			"count":337,
			"max":[
				2.7684614658355713,
				8.608768463134766,
				0.9886404871940613
			],
			"min":[
				-2.7684614658355713,
				5.453824996948242e-06,
				-0.9886404871940613
			],
			"type":"VEC3"
		},
		{
			"bufferView":15,
			"componentType":5126,
			"count":337,
			"type":"VEC3"
		},
		{
			"bufferView":16,
			"componentType":5126,
			"count":337,
			"type":"VEC2"
		},
		{
			"bufferView":17,
			"componentType":5126,
			"count":4,
			"max":[
				1,
				0,
				1
			],
			"min":[
				-1,
				0,
				-1
			],
			"type":"VEC3"
		},
		{
			"bufferView":18,
			"componentType":5126,
			"count":4,
			"type":"VEC3"
		},
		{
			"bufferView":19,
			"componentType":5126,
			"count":4,
			"type":"VEC2"
		},
		{
			"bufferView":20,
			"componentType":5123,
			"count":6,
			"type":"SCALAR"
		},
		{
			"bufferView":21,
			"componentType":5126,
			"count":4,
			"max":[
				1,
				0,
				1
			],
			"min":[
				-1,
				0,
				-1
			],
			"type":"VEC3"
		},
		{
			"bufferView":22,
			"componentType":5126,
			"count":4,
			"type":"VEC3"
		},
		{
			"bufferView":23,
			"componentType":5126,
			"count":4,
			"type":"VEC2"
		},
		{
			"bufferView":24,
			"componentType":5126,
			"count":4,
			"max":[
				1,
				0,
				1
			],
			"min":[
				-1,
				0,
				-1
			],
			"type":"VEC3"
		},
		{
			"bufferView":25,
			"componentType":5126,
			"count":4,
			"type":"VEC3"
		},
		{
			"bufferView":26,
			"componentType":5126,
			"count":4,
			"type":"VEC2"
		}
	],
	"bufferViews":[
		{
			"buffer":0,
			"byteLength":4044,
			"byteOffset":0,
			"target":34962
		},
		{
			"buffer":0,
			"byteLength":4044,
			"byteOffset":4044,
			"target":34962
		},
		{
			"buffer":0,
			"byteLength":2696,
			"byteOffset":8088,
			"target":34962
		},
		{
			"buffer":0,
			"byteLength":1956,
			"byteOffset":10784,
			"target":34963
		},
		{
			"buffer":0,
			"byteLength":4044,
			"byteOffset":12740,
			"target":34962
		},
		{
			"buffer":0,
			"byteLength":4044,
			"byteOffset":16784,
			"target":34962
		},
		{
			"buffer":0,
			"byteLength":2696,
			"byteOffset":20828,
			"target":34962
		},
		{
			"buffer":0,
			"byteLength":25800,
			"byteOffset":23524,
			"target":34962
		},
		{
			"buffer":0,
			"byteLength":25800,
			"byteOffset":49324,
			"target":34962
		},
		{
			"buffer":0,
			"byteLength":17200,
			"byteOffset":75124,
			"target":34962
		},
		{
			"buffer":0,
			"byteLength":12168,
			"byteOffset":92324,
			"target":34963
		},
		{
			"buffer":0,
			"byteLength":4044,
			"byteOffset":104492,
			"target":34962
		},
		{
			"buffer":0,
			"byteLength":4044,
			"byteOffset":108536,
			"target":34962
		},
		{
			"buffer":0,
			"byteLength":2696,
			"byteOffset":112580,
			"target":34962
		},
		{
			"buffer":0,
			"byteLength":4044,
			"byteOffset":115276,
			"target":34962
		},
		{
			"buffer":0,
			"byteLength":4044,
			"byteOffset":119320,
			"target":34962
		},
		{
			"buffer":0,
			"byteLength":2696,
			"byteOffset":123364,
			"target":34962
		},
		{
			"buffer":0,
			"byteLength":48,
			"byteOffset":126060,
			"target":34962
		},
		{
			"buffer":0,
			"byteLength":48,
			"byteOffset":126108,
			"target":34962
		},
		{
			"buffer":0,
			"byteLength":32,
			"byteOffset":126156,
			"target":34962
		},
		{
			"buffer":0,
			"byteLength":12,
			"byteOffset":126188,
			"target":34963
		},
		{
			"buffer":0,
			"byteLength":48,
			"byteOffset":126200,
			"target":34962
		},
		{
			"buffer":0,
			"byteLength":48,
			"byteOffset":126248,
			"target":34962
		},
		{
			"buffer":0,
			"byteLength":32,
			"byteOffset":126296,
			"target":34962
		},
		{
			"buffer":0,
			"byteLength":48,
			"byteOffset":126328,
			"target":34962
		},
		{
			"buffer":0,
			"byteLength":48,
			"byteOffset":126376,
			"target":34962
		},
		{
			"buffer":0,
			"byteLength":32,
			"byteOffset":126424,
			"target":34962
		}
	],
	"samplers":[
		{
			"magFilter":9729,
			"minFilter":9987
		}
	],
	"buffers":[
		{
			"byteLength":126456,
			"uri":"UCB-tunnel-v-resized-01.bin"
		}
	]
}
