{
	"asset":{
		"generator":"Khronos glTF Blender I/O v4.2.60",
		"version":"2.0"
	},
	"extensionsUsed":[
		"KHR_texture_transform"
	],
	"extensionsRequired":[
		"KHR_texture_transform"
	],
	"scene":0,
	"scenes":[
		{
			"name":"Scene",
			"nodes":[
				0,
				1,
				2,
				3,
				4,
				5,
				6,
				7,
				8,
				9,
				10,
				11,
				12,
				13,
				14
			]
		}
	],
	"nodes":[
		{
			"mesh":0,
			"name":"Cube",
			"scale":[
				0.1805325299501419,
				0.1805325299501419,
				0.1805325299501419
			],
			"translation":[
				0.009982109069824219,
				0,
				0.4513312876224518
			]
		},
		{
			"mesh":1,
			"name":"Cube.002",
			"scale":[
				0.1805325299501419,
				0.1805325299501419,
				0.1805325299501419
			],
			"translation":[
				0.009982109069824219,
				0,
				-0.4513312876224518
			]
		},
		{
			"mesh":2,
			"name":"Text.001",
			"rotation":[
				0.7071069478988647,
				0,
				0,
				0.7071066498756409
			],
			"scale":[
				0.05459003895521164,
				0.05459003895521164,
				0.05459003895521164
			],
			"translation":[
				0.008507013320922852,
				1.2254928350448608,
				0.6185048222541809
			]
		},
		{
			"mesh":3,
			"name":"Cube.003",
			"scale":[
				0.1805325299501419,
				0.1805325299501419,
				0.1805325299501419
			],
			"translation":[
				0.009982109069824219,
				0,
				-0.9026625752449036
			]
		},
		{
			"mesh":4,
			"name":"Cube.007",
			"scale":[
				0.1805325299501419,
				0.1805325299501419,
				0.1805325299501419
			],
			"translation":[
				0.009982109069824219,
				0,
				0
			]
		},
		{
			"mesh":5,
			"name":"Plane.002",
			"rotation":[
				0.70710688829422,
				0,
				0,
				0.7071066498756409
			],
			"scale":[
				0.3143606185913086,
				0.18141423165798187,
				0.1317378282546997
			],
			"translation":[
				0.009982109069824219,
				1.2313677072525024,
				0.6170971989631653
			]
		},
		{
			"mesh":6,
			"name":"Plane.003",
			"rotation":[
				0.70710688829422,
				0,
				0,
				0.7071066498756409
			],
			"scale":[
				0.2976403534412384,
				0.17176511883735657,
				0.10080975294113159
			],
			"translation":[
				0.009982109069824219,
				1.3967647552490234,
				0.6109130382537842
			]
		},
		{
			"mesh":7,
			"name":"Plane.010",
			"translation":[
				0.009982109069824219,
				0,
				0
			]
		},
		{
			"mesh":8,
			"name":"Cube.001",
			"scale":[
				0.1805325299501419,
				0.1805325299501419,
				0.1805325299501419
			],
			"translation":[
				0,
				0,
				0.4513312876224518
			]
		},
		{
			"mesh":9,
			"name":"Cube.004",
			"scale":[
				0.1805325299501419,
				0.1805325299501419,
				0.1805325299501419
			],
			"translation":[
				0,
				0,
				-0.4513312876224518
			]
		},
		{
			"mesh":10,
			"name":"Cube.005",
			"scale":[
				0.1805325299501419,
				0.1805325299501419,
				0.1805325299501419
			],
			"translation":[
				0,
				0,
				-0.9026625752449036
			]
		},
		{
			"mesh":11,
			"name":"Cube.006",
			"scale":[
				0.1805325299501419,
				0.1805325299501419,
				0.1805325299501419
			]
		},
		{
			"mesh":12,
			"name":"Plane.001",
			"rotation":[
				0.7071068286895752,
				0,
				0,
				0.7071068286895752
			],
			"scale":[
				0.3143606185913086,
				0.18141421675682068,
				0.1317378133535385
			],
			"translation":[
				0,
				1.2313677072525024,
				0.6170971989631653
			]
		},
		{
			"mesh":13,
			"name":"Plane.012",
			"rotation":[
				0.7071068286895752,
				0,
				0,
				0.7071068286895752
			],
			"scale":[
				0.2976403534412384,
				0.17176508903503418,
				0.1008097305893898
			],
			"translation":[
				0,
				1.3967647552490234,
				0.6109130382537842
			]
		},
		{
			"mesh":14,
			"name":"Text",
			"rotation":[
				0.7071067690849304,
				0,
				0,
				0.7071068286895752
			],
			"scale":[
				0.05459003895521164,
				0.05459003895521164,
				0.05459003895521164
			],
			"translation":[
				-0.0014750321861356497,
				1.2254928350448608,
				0.6185048222541809
			]
		}
	],
	"materials":[
		{
			"doubleSided":true,
			"name":"Material.002",
			"pbrMetallicRoughness":{
				"baseColorTexture":{
					"extensions":{
						"KHR_texture_transform":{
							"offset":[
								0,
								0.5
							],
							"scale":[
								0.5999999046325684,
								0.5
							]
						}
					},
					"index":0
				},
				"metallicFactor":0,
				"roughnessFactor":0.5
			}
		},
		{
			"doubleSided":true,
			"name":"Material.003",
			"pbrMetallicRoughness":{
				"baseColorTexture":{
					"extensions":{
						"KHR_texture_transform":{
							"offset":[
								0,
								0.5
							],
							"scale":[
								0.5999999046325684,
								0.5
							]
						}
					},
					"index":1
				},
				"metallicFactor":0,
				"roughnessFactor":0.5
			}
		},
		{
			"doubleSided":true,
			"name":"Material.004",
			"pbrMetallicRoughness":{
				"baseColorFactor":[
					0,
					0.3564009964466095,
					0.08021999895572662,
					1
				],
				"metallicFactor":0,
				"roughnessFactor":0.5
			}
		},
		{
			"doubleSided":true,
			"name":"Material.006",
			"pbrMetallicRoughness":{
				"baseColorTexture":{
					"extensions":{
						"KHR_texture_transform":{
							"offset":[
								0,
								0.5
							],
							"scale":[
								0.7999998927116394,
								0.5
							]
						}
					},
					"index":2
				},
				"metallicFactor":0,
				"roughnessFactor":0.5
			}
		},
		{
			"doubleSided":true,
			"name":"Material.007",
			"pbrMetallicRoughness":{
				"baseColorTexture":{
					"extensions":{
						"KHR_texture_transform":{
							"offset":[
								0,
								0.7999999821186066
							],
							"scale":[
								0.4000000059604645,
								0.20000001788139343
							]
						}
					},
					"index":3
				},
				"metallicFactor":0,
				"roughnessFactor":0.5
			}
		},
		{
			"alphaMode":"BLEND",
			"doubleSided":true,
			"name":"Material.008",
			"pbrMetallicRoughness":{
				"baseColorTexture":{
					"index":4
				},
				"metallicFactor":0,
				"roughnessFactor":0.5
			}
		},
		{
			"alphaMode":"BLEND",
			"doubleSided":true,
			"name":"Material.014",
			"pbrMetallicRoughness":{
				"baseColorTexture":{
					"index":5
				},
				"metallicFactor":0,
				"roughnessFactor":0.5
			}
		},
		{
			"doubleSided":true,
			"name":"Material.001",
			"pbrMetallicRoughness":{
				"baseColorTexture":{
					"extensions":{
						"KHR_texture_transform":{
							"offset":[
								0,
								-1
							],
							"scale":[
								1.666666931576241,
								2
							]
						}
					},
					"index":6
				},
				"metallicFactor":0,
				"roughnessFactor":0.5
			}
		},
		{
			"doubleSided":true,
			"name":"Material.009",
			"pbrMetallicRoughness":{
				"baseColorTexture":{
					"extensions":{
						"KHR_texture_transform":{
							"offset":[
								0,
								-1
							],
							"scale":[
								1.666666931576241,
								2
							]
						}
					},
					"index":7
				},
				"metallicFactor":0,
				"roughnessFactor":0.5
			}
		},
		{
			"doubleSided":true,
			"name":"Material.010",
			"pbrMetallicRoughness":{
				"baseColorTexture":{
					"extensions":{
						"KHR_texture_transform":{
							"offset":[
								0,
								-1
							],
							"scale":[
								1.2500001676380859,
								2
							]
						}
					},
					"index":8
				},
				"metallicFactor":0,
				"roughnessFactor":0.5
			}
		},
		{
			"doubleSided":true,
			"name":"Material.011",
			"pbrMetallicRoughness":{
				"baseColorTexture":{
					"extensions":{
						"KHR_texture_transform":{
							"offset":[
								0,
								-3.999999552965204
							],
							"scale":[
								2.4999999627470975,
								4.999999552965204
							]
						}
					},
					"index":9
				},
				"metallicFactor":0,
				"roughnessFactor":0.5
			}
		},
		{
			"alphaMode":"BLEND",
			"doubleSided":true,
			"name":"Material.012",
			"pbrMetallicRoughness":{
				"baseColorTexture":{
					"index":10
				},
				"metallicFactor":0,
				"roughnessFactor":0.5
			}
		},
		{
			"alphaMode":"BLEND",
			"doubleSided":true,
			"name":"Material.013",
			"pbrMetallicRoughness":{
				"baseColorTexture":{
					"index":11
				},
				"metallicFactor":0,
				"roughnessFactor":0.5
			}
		},
		{
			"doubleSided":true,
			"name":"Material.005",
			"pbrMetallicRoughness":{
				"baseColorFactor":[
					0,
					0.3564009964466095,
					0.08021999895572662,
					1
				],
				"metallicFactor":0,
				"roughnessFactor":0.5
			}
		}
	],
	"meshes":[
		{
			"name":"Cube",
			"primitives":[
				{
					"attributes":{
						"POSITION":0,
						"NORMAL":1,
						"TEXCOORD_0":2
					},
					"indices":3,
					"material":0
				}
			]
		},
		{
			"name":"Cube.001",
			"primitives":[
				{
					"attributes":{
						"POSITION":4,
						"NORMAL":5,
						"TEXCOORD_0":6
					},
					"indices":3,
					"material":1
				}
			]
		},
		{
			"name":"Text.001",
			"primitives":[
				{
					"attributes":{
						"POSITION":7,
						"NORMAL":8,
						"TEXCOORD_0":9
					},
					"indices":10,
					"material":2
				}
			]
		},
		{
			"name":"Cube.003",
			"primitives":[
				{
					"attributes":{
						"POSITION":11,
						"NORMAL":12,
						"TEXCOORD_0":13
					},
					"indices":3,
					"material":3
				}
			]
		},
		{
			"name":"Cube.007",
			"primitives":[
				{
					"attributes":{
						"POSITION":14,
						"NORMAL":15,
						"TEXCOORD_0":16
					},
					"indices":3,
					"material":4
				}
			]
		},
		{
			"name":"Plane.001",
			"primitives":[
				{
					"attributes":{
						"POSITION":17,
						"NORMAL":18,
						"TEXCOORD_0":19
					},
					"indices":20,
					"material":5
				}
			]
		},
		{
			"name":"Plane.002",
			"primitives":[
				{
					"attributes":{
						"POSITION":21,
						"NORMAL":22,
						"TEXCOORD_0":23
					},
					"indices":20,
					"material":6
				}
			]
		},
		{
			"name":"Plane.010",
			"primitives":[
				{
					"attributes":{
						"POSITION":24,
						"NORMAL":25,
						"TEXCOORD_0":26
					},
					"indices":20
				}
			]
		},
		{
			"name":"Cube.002",
			"primitives":[
				{
					"attributes":{
						"POSITION":27,
						"NORMAL":28,
						"TEXCOORD_0":29
					},
					"indices":30,
					"material":7
				}
			]
		},
		{
			"name":"Cube.004",
			"primitives":[
				{
					"attributes":{
						"POSITION":31,
						"NORMAL":32,
						"TEXCOORD_0":33
					},
					"indices":30,
					"material":8
				}
			]
		},
		{
			"name":"Cube.005",
			"primitives":[
				{
					"attributes":{
						"POSITION":34,
						"NORMAL":35,
						"TEXCOORD_0":36
					},
					"indices":30,
					"material":9
				}
			]
		},
		{
			"name":"Cube.006",
			"primitives":[
				{
					"attributes":{
						"POSITION":37,
						"NORMAL":38,
						"TEXCOORD_0":39
					},
					"indices":30,
					"material":10
				}
			]
		},
		{
			"name":"Plane.003",
			"primitives":[
				{
					"attributes":{
						"POSITION":40,
						"NORMAL":41,
						"TEXCOORD_0":42
					},
					"indices":20,
					"material":11
				}
			]
		},
		{
			"name":"Plane.012",
			"primitives":[
				{
					"attributes":{
						"POSITION":43,
						"NORMAL":44,
						"TEXCOORD_0":45
					},
					"indices":20,
					"material":12
				}
			]
		},
		{
			"name":"Text",
			"primitives":[
				{
					"attributes":{
						"POSITION":46,
						"NORMAL":47,
						"TEXCOORD_0":48
					},
					"indices":10,
					"material":13
				}
			]
		}
	],
	"textures":[
		{
			"sampler":0,
			"source":0
		},
		{
			"sampler":0,
			"source":1
		},
		{
			"sampler":0,
			"source":2
		},
		{
			"sampler":0,
			"source":3
		},
		{
			"sampler":0,
			"source":4
		},
		{
			"sampler":0,
			"source":5
		},
		{
			"sampler":0,
			"source":6
		},
		{
			"sampler":0,
			"source":7
		},
		{
			"sampler":0,
			"source":2
		},
		{
			"sampler":0,
			"source":3
		},
		{
			"sampler":0,
			"source":8
		},
		{
			"sampler":0,
			"source":9
		}
	],
	"images":[
		{
			"mimeType":"image/png",
			"name":"Textures-01v3.mp4",
			"uri":"Texttures%20-%20final/Textures-01v3_mp4.png"
		},
		{
			"mimeType":"image/png",
			"name":"texture-02v2.mp4",
			"uri":"Texttures%20-%20final/texture-02v2_mp4.png"
		},
		{
			"mimeType":"image/png",
			"name":"Final-green-to-animate-v3",
			"uri":"Texttures%20-%20final/Final-green-to-animate-v3.png"
		},
		{
			"mimeType":"image/png",
			"name":"flower animation-tunnel-final.mp4",
			"uri":"Texttures%20-%20final/flower%20animation-tunnel-final_mp4.png"
		},
		{
			"mimeType":"image/png",
			"name":"plank",
			"uri":"Texttures%20-%20final/plank.png"
		},
		{
			"mimeType":"image/png",
			"name":"rope",
			"uri":"Texttures%20-%20final/rope.png"
		},
		{
			"mimeType":"image/png",
			"name":"Textures-01v3",
			"uri":"Texttures%20-%20final/Textures-01v3.png"
		},
		{
			"mimeType":"image/png",
			"name":"texture-02v2",
			"uri":"Texttures%20-%20final/texture-02v2.png"
		},
		{
			"mimeType":"image/png",
			"name":"plank",
			"uri":"Texttures%20-%20final/plank-1.png"
		},
		{
			"mimeType":"image/png",
			"name":"rope",
			"uri":"Texttures%20-%20final/rope-1.png"
		}
	],
	"accessors":[
		{
			"bufferView":0,
			"componentType":5126,
			"count":340,
			"max":[
				2.7684614658355713,
				8.608768463134766,
				0.9886404871940613
			],
			"min":[
				-2.7684614658355713,
				5.453824996948242e-06,
				-0.9886404871940613
			],
			"type":"VEC3"
		},
		{
			"bufferView":1,
			"componentType":5126,
			"count":340,
			"type":"VEC3"
		},
		{
			"bufferView":2,
			"componentType":5126,
			"count":340,
			"type":"VEC2"
		},
		{
			"bufferView":3,
			"componentType":5123,
			"count":978,
			"type":"SCALAR"
		},
		{
			"bufferView":4,
			"componentType":5126,
			"count":340,
			"max":[
				2.7684614658355713,
				8.608768463134766,
				0.9886404871940613
			],
			"min":[
				-2.7684614658355713,
				5.453824996948242e-06,
				-0.9886404871940613
			],
			"type":"VEC3"
		},
		{
			"bufferView":5,
			"componentType":5126,
			"count":340,
			"type":"VEC3"
		},
		{
			"bufferView":6,
			"componentType":5126,
			"count":340,
			"type":"VEC2"
		},
		{
			"bufferView":7,
			"componentType":5126,
			"count":2150,
			"max":[
				4.410852909088135,
				0.07999999076128006,
				0.22308355569839478
			],
			"min":[
				-4.354005336761475,
				-0.07999999076128006,
				-0.3798449635505676
			],
			"type":"VEC3"
		},
		{
			"bufferView":8,
			"componentType":5126,
			"count":2150,
			"type":"VEC3"
		},
		{
			"bufferView":9,
			"componentType":5126,
			"count":2150,
			"type":"VEC2"
		},
		{
			"bufferView":10,
			"componentType":5123,
			"count":6084,
			"type":"SCALAR"
		},
		{
			"bufferView":11,
			"componentType":5126,
			"count":340,
			"max":[
				2.7684614658355713,
				8.608768463134766,
				0.9886404871940613
			],
			"min":[
				-2.7684614658355713,
				5.453824996948242e-06,
				-0.9886404871940613
			],
			"type":"VEC3"
		},
		{
			"bufferView":12,
			"componentType":5126,
			"count":340,
			"type":"VEC3"
		},
		{
			"bufferView":13,
			"componentType":5126,
			"count":340,
			"type":"VEC2"
		},
		{
			"bufferView":14,
			"componentType":5126,
			"count":340,
			"max":[
				2.7684614658355713,
				8.608768463134766,
				0.9886404871940613
			],
			"min":[
				-2.7684614658355713,
				5.453824996948242e-06,
				-0.9886404871940613
			],
			"type":"VEC3"
		},
		{
			"bufferView":15,
			"componentType":5126,
			"count":340,
			"type":"VEC3"
		},
		{
			"bufferView":16,
			"componentType":5126,
			"count":340,
			"type":"VEC2"
		},
		{
			"bufferView":17,
			"componentType":5126,
			"count":4,
			"max":[
				1,
				0,
				1
			],
			"min":[
				-1,
				0,
				-1
			],
			"type":"VEC3"
		},
		{
			"bufferView":18,
			"componentType":5126,
			"count":4,
			"type":"VEC3"
		},
		{
			"bufferView":19,
			"componentType":5126,
			"count":4,
			"type":"VEC2"
		},
		{
			"bufferView":20,
			"componentType":5123,
			"count":6,
			"type":"SCALAR"
		},
		{
			"bufferView":21,
			"componentType":5126,
			"count":4,
			"max":[
				1,
				0,
				1
			],
			"min":[
				-1,
				0,
				-1
			],
			"type":"VEC3"
		},
		{
			"bufferView":22,
			"componentType":5126,
			"count":4,
			"type":"VEC3"
		},
		{
			"bufferView":23,
			"componentType":5126,
			"count":4,
			"type":"VEC2"
		},
		{
			"bufferView":24,
			"componentType":5126,
			"count":4,
			"max":[
				1,
				0,
				1
			],
			"min":[
				-1,
				0,
				-1
			],
			"type":"VEC3"
		},
		{
			"bufferView":25,
			"componentType":5126,
			"count":4,
			"type":"VEC3"
		},
		{
			"bufferView":26,
			"componentType":5126,
			"count":4,
			"type":"VEC2"
		},
		{
			"bufferView":27,
			"componentType":5126,
			"count":344,
			"max":[
				2.7684614658355713,
				8.608768463134766,
				0.9886404871940613
			],
			"min":[
				-2.7684614658355713,
				5.453824996948242e-06,
				-0.9886404871940613
			],
			"type":"VEC3"
		},
		{
			"bufferView":28,
			"componentType":5126,
			"count":344,
			"type":"VEC3"
		},
		{
			"bufferView":29,
			"componentType":5126,
			"count":344,
			"type":"VEC2"
		},
		{
			"bufferView":30,
			"componentType":5123,
			"count":978,
			"type":"SCALAR"
		},
		{
			"bufferView":31,
			"componentType":5126,
			"count":344,
			"max":[
				2.7684614658355713,
				8.608768463134766,
				0.9886404871940613
			],
			"min":[
				-2.7684614658355713,
				5.453824996948242e-06,
				-0.9886404871940613
			],
			"type":"VEC3"
		},
		{
			"bufferView":32,
			"componentType":5126,
			"count":344,
			"type":"VEC3"
		},
		{
			"bufferView":33,
			"componentType":5126,
			"count":344,
			"type":"VEC2"
		},
		{
			"bufferView":34,
			"componentType":5126,
			"count":344,
			"max":[
				2.7684614658355713,
				8.608768463134766,
				0.9886404871940613
			],
			"min":[
				-2.7684614658355713,
				5.453824996948242e-06,
				-0.9886404871940613
			],
			"type":"VEC3"
		},
		{
			"bufferView":35,
			"componentType":5126,
			"count":344,
			"type":"VEC3"
		},
		{
			"bufferView":36,
			"componentType":5126,
			"count":344,
			"type":"VEC2"
		},
		{
			"bufferView":37,
			"componentType":5126,
			"count":344,
			"max":[
				2.7684614658355713,
				8.608768463134766,
				0.9886404871940613
			],
			"min":[
				-2.7684614658355713,
				5.453824996948242e-06,
				-0.9886404871940613
			],
			"type":"VEC3"
		},
		{
			"bufferView":38,
			"componentType":5126,
			"count":344,
			"type":"VEC3"
		},
		{
			"bufferView":39,
			"componentType":5126,
			"count":344,
			"type":"VEC2"
		},
		{
			"bufferView":40,
			"componentType":5126,
			"count":4,
			"max":[
				1,
				0,
				1
			],
			"min":[
				-1,
				0,
				-1
			],
			"type":"VEC3"
		},
		{
			"bufferView":41,
			"componentType":5126,
			"count":4,
			"type":"VEC3"
		},
		{
			"bufferView":42,
			"componentType":5126,
			"count":4,
			"type":"VEC2"
		},
		{
			"bufferView":43,
			"componentType":5126,
			"count":4,
			"max":[
				1,
				0,
				1
			],
			"min":[
				-1,
				0,
				-1
			],
			"type":"VEC3"
		},
		{
			"bufferView":44,
			"componentType":5126,
			"count":4,
			"type":"VEC3"
		},
		{
			"bufferView":45,
			"componentType":5126,
			"count":4,
			"type":"VEC2"
		},
		{
			"bufferView":46,
			"componentType":5126,
			"count":2150,
			"max":[
				4.410852909088135,
				0.07999999076128006,
				0.22308355569839478
			],
			"min":[
				-4.354005336761475,
				-0.07999999076128006,
				-0.3798449635505676
			],
			"type":"VEC3"
		},
		{
			"bufferView":47,
			"componentType":5126,
			"count":2150,
			"type":"VEC3"
		},
		{
			"bufferView":48,
			"componentType":5126,
			"count":2150,
			"type":"VEC2"
		}
	],
	"bufferViews":[
		{
			"buffer":0,
			"byteLength":4080,
			"byteOffset":0,
			"target":34962
		},
		{
			"buffer":0,
			"byteLength":4080,
			"byteOffset":4080,
			"target":34962
		},
		{
			"buffer":0,
			"byteLength":2720,
			"byteOffset":8160,
			"target":34962
		},
		{
			"buffer":0,
			"byteLength":1956,
			"byteOffset":10880,
			"target":34963
		},
		{
			"buffer":0,
			"byteLength":4080,
			"byteOffset":12836,
			"target":34962
		},
		{
			"buffer":0,
			"byteLength":4080,
			"byteOffset":16916,
			"target":34962
		},
		{
			"buffer":0,
			"byteLength":2720,
			"byteOffset":20996,
			"target":34962
		},
		{
			"buffer":0,
			"byteLength":25800,
			"byteOffset":23716,
			"target":34962
		},
		{
			"buffer":0,
			"byteLength":25800,
			"byteOffset":49516,
			"target":34962
		},
		{
			"buffer":0,
			"byteLength":17200,
			"byteOffset":75316,
			"target":34962
		},
		{
			"buffer":0,
			"byteLength":12168,
			"byteOffset":92516,
			"target":34963
		},
		{
			"buffer":0,
			"byteLength":4080,
			"byteOffset":104684,
			"target":34962
		},
		{
			"buffer":0,
			"byteLength":4080,
			"byteOffset":108764,
			"target":34962
		},
		{
			"buffer":0,
			"byteLength":2720,
			"byteOffset":112844,
			"target":34962
		},
		{
			"buffer":0,
			"byteLength":4080,
			"byteOffset":115564,
			"target":34962
		},
		{
			"buffer":0,
			"byteLength":4080,
			"byteOffset":119644,
			"target":34962
		},
		{
			"buffer":0,
			"byteLength":2720,
			"byteOffset":123724,
			"target":34962
		},
		{
			"buffer":0,
			"byteLength":48,
			"byteOffset":126444,
			"target":34962
		},
		{
			"buffer":0,
			"byteLength":48,
			"byteOffset":126492,
			"target":34962
		},
		{
			"buffer":0,
			"byteLength":32,
			"byteOffset":126540,
			"target":34962
		},
		{
			"buffer":0,
			"byteLength":12,
			"byteOffset":126572,
			"target":34963
		},
		{
			"buffer":0,
			"byteLength":48,
			"byteOffset":126584,
			"target":34962
		},
		{
			"buffer":0,
			"byteLength":48,
			"byteOffset":126632,
			"target":34962
		},
		{
			"buffer":0,
			"byteLength":32,
			"byteOffset":126680,
			"target":34962
		},
		{
			"buffer":0,
			"byteLength":48,
			"byteOffset":126712,
			"target":34962
		},
		{
			"buffer":0,
			"byteLength":48,
			"byteOffset":126760,
			"target":34962
		},
		{
			"buffer":0,
			"byteLength":32,
			"byteOffset":126808,
			"target":34962
		},
		{
			"buffer":0,
			"byteLength":4128,
			"byteOffset":126840,
			"target":34962
		},
		{
			"buffer":0,
			"byteLength":4128,
			"byteOffset":130968,
			"target":34962
		},
		{
			"buffer":0,
			"byteLength":2752,
			"byteOffset":135096,
			"target":34962
		},
		{
			"buffer":0,
			"byteLength":1956,
			"byteOffset":137848,
			"target":34963
		},
		{
			"buffer":0,
			"byteLength":4128,
			"byteOffset":139804,
			"target":34962
		},
		{
			"buffer":0,
			"byteLength":4128,
			"byteOffset":143932,
			"target":34962
		},
		{
			"buffer":0,
			"byteLength":2752,
			"byteOffset":148060,
			"target":34962
		},
		{
			"buffer":0,
			"byteLength":4128,
			"byteOffset":150812,
			"target":34962
		},
		{
			"buffer":0,
			"byteLength":4128,
			"byteOffset":154940,
			"target":34962
		},
		{
			"buffer":0,
			"byteLength":2752,
			"byteOffset":159068,
			"target":34962
		},
		{
			"buffer":0,
			"byteLength":4128,
			"byteOffset":161820,
			"target":34962
		},
		{
			"buffer":0,
			"byteLength":4128,
			"byteOffset":165948,
			"target":34962
		},
		{
			"buffer":0,
			"byteLength":2752,
			"byteOffset":170076,
			"target":34962
		},
		{
			"buffer":0,
			"byteLength":48,
			"byteOffset":172828,
			"target":34962
		},
		{
			"buffer":0,
			"byteLength":48,
			"byteOffset":172876,
			"target":34962
		},
		{
			"buffer":0,
			"byteLength":32,
			"byteOffset":172924,
			"target":34962
		},
		{
			"buffer":0,
			"byteLength":48,
			"byteOffset":172956,
			"target":34962
		},
		{
			"buffer":0,
			"byteLength":48,
			"byteOffset":173004,
			"target":34962
		},
		{
			"buffer":0,
			"byteLength":32,
			"byteOffset":173052,
			"target":34962
		},
		{
			"buffer":0,
			"byteLength":25800,
			"byteOffset":173084,
			"target":34962
		},
		{
			"buffer":0,
			"byteLength":25800,
			"byteOffset":198884,
			"target":34962
		},
		{
			"buffer":0,
			"byteLength":17200,
			"byteOffset":224684,
			"target":34962
		}
	],
	"samplers":[
		{
			"magFilter":9729,
			"minFilter":9987
		}
	],
	"buffers":[
		{
			"byteLength":241884,
			"uri":"UCB-Tunnel.bin"
		}
	]
}
